<?xml version="1.0" standalone="no"?>
<!DOCTYPE svg PUBLIC "-//W3C//DTD SVG 20010904//EN"
 "http://www.w3.org/TR/2001/REC-SVG-20010904/DTD/svg10.dtd">
<svg version="1.0" xmlns="http://www.w3.org/2000/svg"
 width="200.000000pt" height="200.000000pt" viewBox="0 0 200.000000 200.000000"
 preserveAspectRatio="xMidYMid meet" fill="red">

<g transform="translate(0.000000,200.000000) scale(0.100000,-0.100000)"
fill="#000000" stroke="none">
<path d="M865 1610 c-215 -46 -394 -207 -467 -419 -19 -54 -23 -87 -23 -186 0
-141 20 -221 83 -324 168 -279 520 -380 815 -234 91 46 218 170 265 260 78
149 93 358 37 505 -5 12 2 21 24 33 28 14 34 14 53 0 80 -55 172 52 103 120
-32 33 -78 33 -110 0 -14 -13 -25 -36 -25 -50 0 -20 -8 -29 -32 -39 l-32 -14
-36 60 c-72 120 -189 214 -328 265 -52 20 -91 26 -177 29 -60 2 -128 -1 -150
-6z m265 -75 c89 -23 179 -75 244 -140 53 -52 124 -151 114 -159 -9 -9 -48
-26 -56 -26 -6 0 -21 19 -35 43 -14 23 -50 65 -79 94 -267 252 -700 124 -793
-234 -83 -320 200 -634 529 -586 298 43 479 334 391 629 -5 17 0 24 25 34 17
7 33 10 36 7 3 -3 12 -29 20 -58 18 -70 18 -209 -1 -279 -50 -189 -206 -345
-395 -395 -71 -19 -209 -19 -280 0 -189 50 -345 206 -395 395 -19 71 -19 209
0 280 50 187 205 344 391 395 66 18 216 18 284 0z m-23 -140 c75 -22 167 -88
213 -153 22 -30 40 -58 40 -61 0 -4 -13 -12 -30 -18 -28 -10 -31 -9 -50 23
-59 94 -172 154 -290 154 -100 0 -171 -29 -241 -99 -70 -70 -99 -141 -99 -241
0 -100 29 -171 99 -241 97 -97 237 -126 368 -77 79 29 162 112 191 191 24 62
30 175 12 221 -8 21 -6 27 10 36 35 19 47 11 59 -34 40 -160 -31 -342 -170
-435 -84 -56 -152 -74 -254 -69 -152 8 -282 96 -348 236 -30 62 -32 75 -32
172 0 97 2 110 32 172 51 108 142 187 258 224 55 18 171 17 232 -1z m603 -85
c0 -5 -4 -10 -10 -10 -5 0 -10 5 -10 10 0 6 5 10 10 10 6 0 10 -4 10 -10z
m-603 -61 c41 -20 123 -99 123 -119 0 -5 -14 -16 -32 -23 -31 -12 -33 -12 -74
29 -47 48 -85 59 -165 52 -57 -6 -110 -43 -141 -98 -29 -54 -22 -155 15 -204
38 -49 94 -76 157 -76 115 0 190 78 190 197 0 57 1 59 31 70 18 7 35 10 39 8
15 -9 21 -93 10 -141 -23 -102 -114 -193 -218 -215 -184 -39 -362 139 -323
323 21 100 111 194 206 217 53 13 130 5 182 -20z m-74 -133 c18 -7 40 -22 50
-33 17 -19 16 -20 -22 -35 -24 -10 -44 -12 -54 -7 -31 18 -74 -21 -61 -56 16
-40 75 -39 88 3 7 22 66 46 80 32 16 -16 -12 -86 -44 -113 -42 -36 -82 -42
-127 -20 -103 51 -104 173 -2 225 41 22 50 22 92 4z"/>
</g>
</svg>
